# xmcd
#
# Track frame offsets:
#	150
#	17833
#	35759
#	55412
#	74311
#	92386
#	109936
#	127409
#	148111
#	163559
#
# Disc length: 2351 seconds
#
# Revision: 0
# Processed by: cddbd v1.5.2PL0 Copyright (c) Steve Scherf et al.
# Submitted via: EasyCDDAExtractor 16.0.6.1
#
DISCID=92092d0a
DTITLE=Συλλογικός δίσκος - Το ρεμπέτικο τραγούδι 2-Η.Π.Α. αρχές 20ού
DYEAR=1986
DGENRE=Ρεμπέτικη
TTITLE0=Μπέζος Κώστας ή Κωστής Α. - Ήσουνα ξυπόλητη [ζεϊμπέκικο, κιθ. Α. Κωστή
TTITLE0=ς]
TTITLE1=Παπαγκίκα Μαρίκα - Φονιάς θα γίνω [ρεμπέτικο]
TTITLE2=Κατσαρός Γιώργος - Ελληνική απόλαυσις [κιθ. Γ. Κατσαρός]
TTITLE3=Παπαγκίκα Μαρίκα - Το Μποχώρι [ζεϊμπέκικο]
TTITLE4=Ιωαννίδης Γιαννάκης - Από κάτω απ' τις ντομάτες [ρεμπέτικο, ζεϊμπέκικο
TTITLE4=, μπουζ. Μαν. Καραπιπέρης]
TTITLE5=Δούσας Κώστας - Εργάτης τιμημένος [κιθ. Κ. Δούσας,ακκ. Σ. Παρίσης,καστ
TTITLE5=Ελ. Μαυρίτσα]
TTITLE6=Παπαγκίκα Μαρίκα - Τα παιδιά της γειτονιάς σου
TTITLE7=Κατσαρός Γιώργος - Και γιατί δε μάς το λες [ρεμπέτικο, κιθ. Γ. Κατσαρό
TTITLE7=ς]
TTITLE8=Κούλα κυρία - Μπαγλαμάδες [ζεϊμπέκικο, κλαρ. Ν. Ρέλιας, λαούτο Παναγιώ
TTITLE8=της]
TTITLE9=Άνευ ερμηνευτού - Νέο μυτιληνιό ζεϊμπέκικο [οργανικό, τρίο Ι. Κυριακάτ
TTITLE9=η]
EXTD=
EXTT0=
EXTT1=
EXTT2=
EXTT3=
EXTT4=
EXTT5=
EXTT6=
EXTT7=
EXTT8=
EXTT9=
PLAYORDER=
